<svg xmlns="http://www.w3.org/2000/svg" width="220" height="220"><path fill="#FFF" d="M151.88 1.012c-1.911.112-3.823.563-5.623 1.745 7.48 1.518 16.198 2.475 20.923 9.279 2.362 2.531 1.629 6.356-.732 8.55-4.442 5.345-12.147 6.974-18.672 5.288-22.216-5.232-43.195-15.468-66.032-18.113-12.205-1.63-24.184 4.275-32.621 12.769-7.762 7.818-10.629 19.685-9.056 30.372 1.745 8.494 7.987 17.268 17.098 18.506-5.398-5.852-6.41-15.976-.842-22.049 3.148-3.938 8.774-4.443 13.443-3.711 17.717 3.26 34.927 8.604 52.586 12.203 9.899 2.701 19.63 5.907 29.754 7.706.17 12.093.17 24.13 0 36.167-6.522 4.892-12.711 10.124-19.124 15.128 6.244 4.67 12.657 9 19.069 13.388.393 17.043-.059 34.141.225 51.182-10.52 8.157-24.636 9.449-37.46 7.931-13.61-.729-25.703-8.886-34.589-18.727 14.962-7.989 30.147-15.469 45.445-22.781.562-26.885.112-53.827.226-80.768-19.122 7.986-38.021 16.422-57.032 24.579C74.378 75.594 85.571 64.177 98.9 57.427c-3.486.225-7.143-.057-10.406 1.462-24.972 9.843-45.556 31.048-53.318 56.92-5.175 16.424-3.487 34.423 2.082 50.451 6.974 17.889 19.853 33.693 36.953 42.747 9.616 4.949 19.911 9.617 30.933 9.731 22.779 1.912 46.738-6.693 62.093-23.849 6.694-7.199 10.067-16.594 13.442-25.649 3.095-8.941 4.5-18.446 4.163-27.952-7.369 14.622-17.153 28.346-30.541 38.077.113-16.985-.056-34.026.057-51.015 5.793-4.443 11.642-8.885 17.323-13.555-5.793-5.117-11.53-10.236-17.323-15.354V63.555c12.992-.673 28.01-7.535 31.496-21.204 2.417-8.887 3.713-19.46-1.743-27.558-5.006-5.74-11.53-10.688-19.18-12.094-4.333-.223-8.831-1.856-13.051-1.687zM90.97 83.018c-.057 25.928.168 51.857-.113 77.73-4.331 1.688-8.605 3.545-12.824 5.455-7.875-11.36-12.71-24.746-14.961-38.302-.62-11.473 1.518-23.061 5.513-33.803 7.478-3.543 14.847-7.425 22.385-11.08z"/></svg>